<mxfile host="app.diagrams.net" modified="2023-10-11T03:26:26.432Z" agent="Mozilla/5.0 (X11; Linux x86_64) AppleWebKit/537.36 (KHTML, like Gecko) Chrome/116.0.0.0 Safari/537.36" etag="Yn11KtFx1nN34KkdoVAq" version="22.0.4" type="device" pages="2">
  <diagram name="Activity Diagram" id="lJRl4bNU1FXtWEgWCbcQ">
    <mxGraphModel dx="1356" dy="725" grid="1" gridSize="4" guides="1" tooltips="1" connect="1" arrows="1" fold="1" page="1" pageScale="1" pageWidth="827" pageHeight="1169" math="0" shadow="0">
      <root>
        <mxCell id="0" />
        <mxCell id="1" parent="0" />
        <mxCell id="w0-OReC6eNyjPVK1eubu-151" value="" style="ellipse;whiteSpace=wrap;html=1;aspect=fixed;fillColor=#000000;" vertex="1" parent="1">
          <mxGeometry x="411" y="30" width="20" height="20" as="geometry" />
        </mxCell>
        <mxCell id="w0-OReC6eNyjPVK1eubu-152" value="" style="rhombus;whiteSpace=wrap;html=1;" vertex="1" parent="1">
          <mxGeometry x="386" y="80" width="70" height="60" as="geometry" />
        </mxCell>
        <mxCell id="w0-OReC6eNyjPVK1eubu-153" value="" style="rounded=0;whiteSpace=wrap;html=1;" vertex="1" parent="1">
          <mxGeometry x="171" y="170" width="90" height="30" as="geometry" />
        </mxCell>
        <mxCell id="w0-OReC6eNyjPVK1eubu-154" value="" style="rounded=0;whiteSpace=wrap;html=1;" vertex="1" parent="1">
          <mxGeometry x="581" y="170" width="90" height="30" as="geometry" />
        </mxCell>
        <mxCell id="w0-OReC6eNyjPVK1eubu-155" value="" style="rounded=0;whiteSpace=wrap;html=1;" vertex="1" parent="1">
          <mxGeometry x="376" y="170" width="90" height="30" as="geometry" />
        </mxCell>
        <mxCell id="w0-OReC6eNyjPVK1eubu-157" value="" style="rounded=0;whiteSpace=wrap;html=1;" vertex="1" parent="1">
          <mxGeometry x="13" y="240" width="90" height="30" as="geometry" />
        </mxCell>
        <mxCell id="w0-OReC6eNyjPVK1eubu-158" value="" style="rounded=0;whiteSpace=wrap;html=1;" vertex="1" parent="1">
          <mxGeometry x="13" y="170" width="90" height="30" as="geometry" />
        </mxCell>
        <mxCell id="w0-OReC6eNyjPVK1eubu-159" value="" style="rounded=0;whiteSpace=wrap;html=1;" vertex="1" parent="1">
          <mxGeometry x="171" y="240" width="90" height="30" as="geometry" />
        </mxCell>
        <mxCell id="w0-OReC6eNyjPVK1eubu-160" value="" style="endArrow=classic;html=1;rounded=0;exitX=0;exitY=0.5;exitDx=0;exitDy=0;entryX=1;entryY=0.5;entryDx=0;entryDy=0;" edge="1" parent="1" source="w0-OReC6eNyjPVK1eubu-153" target="w0-OReC6eNyjPVK1eubu-158">
          <mxGeometry width="50" height="50" relative="1" as="geometry">
            <mxPoint x="531" y="230" as="sourcePoint" />
            <mxPoint x="121" y="185" as="targetPoint" />
          </mxGeometry>
        </mxCell>
        <mxCell id="w0-OReC6eNyjPVK1eubu-161" value="" style="endArrow=classic;html=1;rounded=0;exitX=0;exitY=1;exitDx=0;exitDy=0;entryX=1;entryY=0;entryDx=0;entryDy=0;" edge="1" parent="1" source="w0-OReC6eNyjPVK1eubu-153" target="w0-OReC6eNyjPVK1eubu-157">
          <mxGeometry width="50" height="50" relative="1" as="geometry">
            <mxPoint x="181" y="195" as="sourcePoint" />
            <mxPoint x="121" y="240" as="targetPoint" />
          </mxGeometry>
        </mxCell>
        <mxCell id="w0-OReC6eNyjPVK1eubu-162" value="" style="endArrow=classic;html=1;rounded=0;exitX=0.5;exitY=1;exitDx=0;exitDy=0;entryX=0.5;entryY=0;entryDx=0;entryDy=0;" edge="1" parent="1" source="w0-OReC6eNyjPVK1eubu-153" target="w0-OReC6eNyjPVK1eubu-159">
          <mxGeometry width="50" height="50" relative="1" as="geometry">
            <mxPoint x="191" y="205" as="sourcePoint" />
            <mxPoint x="141" y="205" as="targetPoint" />
          </mxGeometry>
        </mxCell>
        <mxCell id="w0-OReC6eNyjPVK1eubu-164" value="" style="rhombus;whiteSpace=wrap;html=1;" vertex="1" parent="1">
          <mxGeometry x="181" y="330" width="70" height="60" as="geometry" />
        </mxCell>
        <mxCell id="w0-OReC6eNyjPVK1eubu-165" value="" style="endArrow=classic;html=1;rounded=0;exitX=0.5;exitY=1;exitDx=0;exitDy=0;entryX=0.5;entryY=0;entryDx=0;entryDy=0;" edge="1" parent="1" source="w0-OReC6eNyjPVK1eubu-152" target="w0-OReC6eNyjPVK1eubu-155">
          <mxGeometry width="50" height="50" relative="1" as="geometry">
            <mxPoint x="181" y="195" as="sourcePoint" />
            <mxPoint x="131" y="195" as="targetPoint" />
          </mxGeometry>
        </mxCell>
        <mxCell id="w0-OReC6eNyjPVK1eubu-166" value="" style="endArrow=classic;html=1;rounded=0;exitX=0;exitY=0.5;exitDx=0;exitDy=0;entryX=0.5;entryY=0;entryDx=0;entryDy=0;" edge="1" parent="1" source="w0-OReC6eNyjPVK1eubu-152" target="w0-OReC6eNyjPVK1eubu-153">
          <mxGeometry width="50" height="50" relative="1" as="geometry">
            <mxPoint x="191" y="205" as="sourcePoint" />
            <mxPoint x="141" y="205" as="targetPoint" />
            <Array as="points">
              <mxPoint x="216" y="110" />
            </Array>
          </mxGeometry>
        </mxCell>
        <mxCell id="w0-OReC6eNyjPVK1eubu-167" value="" style="endArrow=classic;html=1;rounded=0;exitX=1;exitY=0.5;exitDx=0;exitDy=0;entryX=0.5;entryY=0;entryDx=0;entryDy=0;" edge="1" parent="1" source="w0-OReC6eNyjPVK1eubu-152" target="w0-OReC6eNyjPVK1eubu-154">
          <mxGeometry width="50" height="50" relative="1" as="geometry">
            <mxPoint x="201" y="215" as="sourcePoint" />
            <mxPoint x="151" y="215" as="targetPoint" />
            <Array as="points">
              <mxPoint x="626" y="110" />
            </Array>
          </mxGeometry>
        </mxCell>
        <mxCell id="w0-OReC6eNyjPVK1eubu-168" value="" style="rounded=0;whiteSpace=wrap;html=1;" vertex="1" parent="1">
          <mxGeometry x="171" y="440" width="90" height="30" as="geometry" />
        </mxCell>
        <mxCell id="w0-OReC6eNyjPVK1eubu-169" value="" style="rounded=0;whiteSpace=wrap;html=1;" vertex="1" parent="1">
          <mxGeometry x="13" y="345" width="90" height="30" as="geometry" />
        </mxCell>
        <mxCell id="w0-OReC6eNyjPVK1eubu-170" value="" style="endArrow=classic;html=1;rounded=0;exitX=0.5;exitY=1;exitDx=0;exitDy=0;entryX=0.5;entryY=0;entryDx=0;entryDy=0;" edge="1" parent="1" source="w0-OReC6eNyjPVK1eubu-164" target="w0-OReC6eNyjPVK1eubu-168">
          <mxGeometry width="50" height="50" relative="1" as="geometry">
            <mxPoint x="531" y="350" as="sourcePoint" />
            <mxPoint x="581" y="300" as="targetPoint" />
          </mxGeometry>
        </mxCell>
        <mxCell id="w0-OReC6eNyjPVK1eubu-172" value="" style="endArrow=classic;html=1;rounded=0;exitX=0;exitY=0.5;exitDx=0;exitDy=0;entryX=1;entryY=0.5;entryDx=0;entryDy=0;" edge="1" parent="1" source="w0-OReC6eNyjPVK1eubu-164" target="w0-OReC6eNyjPVK1eubu-169">
          <mxGeometry width="50" height="50" relative="1" as="geometry">
            <mxPoint x="226" y="400" as="sourcePoint" />
            <mxPoint x="121" y="360" as="targetPoint" />
          </mxGeometry>
        </mxCell>
        <mxCell id="w0-OReC6eNyjPVK1eubu-173" value="" style="endArrow=classic;html=1;rounded=0;exitX=0.5;exitY=1;exitDx=0;exitDy=0;entryX=0.5;entryY=0;entryDx=0;entryDy=0;" edge="1" parent="1" source="w0-OReC6eNyjPVK1eubu-159" target="w0-OReC6eNyjPVK1eubu-164">
          <mxGeometry width="50" height="50" relative="1" as="geometry">
            <mxPoint x="236" y="410" as="sourcePoint" />
            <mxPoint x="236" y="460" as="targetPoint" />
          </mxGeometry>
        </mxCell>
        <mxCell id="w0-OReC6eNyjPVK1eubu-176" value="" style="endArrow=classic;html=1;rounded=0;exitX=0.5;exitY=1;exitDx=0;exitDy=0;entryX=0;entryY=0.5;entryDx=0;entryDy=0;" edge="1" parent="1" source="w0-OReC6eNyjPVK1eubu-239" target="w0-OReC6eNyjPVK1eubu-168">
          <mxGeometry width="50" height="50" relative="1" as="geometry">
            <mxPoint x="103" y="455" as="sourcePoint" />
            <mxPoint x="176" y="508" as="targetPoint" />
            <Array as="points">
              <mxPoint x="58" y="455" />
            </Array>
          </mxGeometry>
        </mxCell>
        <mxCell id="w0-OReC6eNyjPVK1eubu-178" value="" style="rounded=0;whiteSpace=wrap;html=1;" vertex="1" parent="1">
          <mxGeometry x="301" y="240" width="90" height="30" as="geometry" />
        </mxCell>
        <mxCell id="w0-OReC6eNyjPVK1eubu-179" value="" style="rounded=0;whiteSpace=wrap;html=1;" vertex="1" parent="1">
          <mxGeometry x="376" y="310" width="90" height="30" as="geometry" />
        </mxCell>
        <mxCell id="w0-OReC6eNyjPVK1eubu-180" value="" style="rounded=0;whiteSpace=wrap;html=1;" vertex="1" parent="1">
          <mxGeometry x="451" y="240" width="90" height="30" as="geometry" />
        </mxCell>
        <mxCell id="w0-OReC6eNyjPVK1eubu-181" value="" style="endArrow=classic;html=1;rounded=0;exitX=0;exitY=0.5;exitDx=0;exitDy=0;entryX=0.5;entryY=0;entryDx=0;entryDy=0;" edge="1" parent="1" source="w0-OReC6eNyjPVK1eubu-155" target="w0-OReC6eNyjPVK1eubu-178">
          <mxGeometry width="50" height="50" relative="1" as="geometry">
            <mxPoint x="531" y="350" as="sourcePoint" />
            <mxPoint x="581" y="300" as="targetPoint" />
            <Array as="points">
              <mxPoint x="346" y="185" />
            </Array>
          </mxGeometry>
        </mxCell>
        <mxCell id="w0-OReC6eNyjPVK1eubu-182" value="" style="endArrow=classic;html=1;rounded=0;exitX=0.5;exitY=1;exitDx=0;exitDy=0;entryX=0.5;entryY=0;entryDx=0;entryDy=0;" edge="1" parent="1" source="w0-OReC6eNyjPVK1eubu-155" target="w0-OReC6eNyjPVK1eubu-179">
          <mxGeometry width="50" height="50" relative="1" as="geometry">
            <mxPoint x="226" y="210" as="sourcePoint" />
            <mxPoint x="226" y="250" as="targetPoint" />
          </mxGeometry>
        </mxCell>
        <mxCell id="w0-OReC6eNyjPVK1eubu-183" value="" style="endArrow=classic;html=1;rounded=0;exitX=1;exitY=0.5;exitDx=0;exitDy=0;entryX=0.5;entryY=0;entryDx=0;entryDy=0;" edge="1" parent="1" source="w0-OReC6eNyjPVK1eubu-155" target="w0-OReC6eNyjPVK1eubu-180">
          <mxGeometry width="50" height="50" relative="1" as="geometry">
            <mxPoint x="431" y="210" as="sourcePoint" />
            <mxPoint x="431" y="320" as="targetPoint" />
            <Array as="points">
              <mxPoint x="496" y="185" />
            </Array>
          </mxGeometry>
        </mxCell>
        <mxCell id="w0-OReC6eNyjPVK1eubu-184" value="" style="rounded=0;whiteSpace=wrap;html=1;" vertex="1" parent="1">
          <mxGeometry x="376" y="375" width="90" height="30" as="geometry" />
        </mxCell>
        <mxCell id="w0-OReC6eNyjPVK1eubu-185" value="" style="rounded=0;whiteSpace=wrap;html=1;" vertex="1" parent="1">
          <mxGeometry x="376" y="440" width="90" height="30" as="geometry" />
        </mxCell>
        <mxCell id="w0-OReC6eNyjPVK1eubu-186" value="" style="endArrow=classic;html=1;rounded=0;exitX=0.5;exitY=1;exitDx=0;exitDy=0;entryX=0.5;entryY=0;entryDx=0;entryDy=0;" edge="1" parent="1" source="w0-OReC6eNyjPVK1eubu-184" target="w0-OReC6eNyjPVK1eubu-185">
          <mxGeometry width="50" height="50" relative="1" as="geometry">
            <mxPoint x="431" y="210" as="sourcePoint" />
            <mxPoint x="431" y="320" as="targetPoint" />
          </mxGeometry>
        </mxCell>
        <mxCell id="w0-OReC6eNyjPVK1eubu-187" value="" style="endArrow=classic;html=1;rounded=0;exitX=0.5;exitY=1;exitDx=0;exitDy=0;entryX=0.5;entryY=0;entryDx=0;entryDy=0;" edge="1" parent="1" source="w0-OReC6eNyjPVK1eubu-179" target="w0-OReC6eNyjPVK1eubu-184">
          <mxGeometry width="50" height="50" relative="1" as="geometry">
            <mxPoint x="441" y="220" as="sourcePoint" />
            <mxPoint x="441" y="330" as="targetPoint" />
          </mxGeometry>
        </mxCell>
        <mxCell id="w0-OReC6eNyjPVK1eubu-188" value="" style="rounded=0;whiteSpace=wrap;html=1;" vertex="1" parent="1">
          <mxGeometry x="721" y="170" width="90" height="30" as="geometry" />
        </mxCell>
        <mxCell id="w0-OReC6eNyjPVK1eubu-189" value="" style="rounded=0;whiteSpace=wrap;html=1;" vertex="1" parent="1">
          <mxGeometry x="581" y="240" width="90" height="30" as="geometry" />
        </mxCell>
        <mxCell id="w0-OReC6eNyjPVK1eubu-190" value="" style="rounded=0;whiteSpace=wrap;html=1;" vertex="1" parent="1">
          <mxGeometry x="721" y="240" width="90" height="30" as="geometry" />
        </mxCell>
        <mxCell id="w0-OReC6eNyjPVK1eubu-192" value="" style="rhombus;whiteSpace=wrap;html=1;" vertex="1" parent="1">
          <mxGeometry x="591" y="330" width="70" height="60" as="geometry" />
        </mxCell>
        <mxCell id="w0-OReC6eNyjPVK1eubu-193" value="" style="rounded=0;whiteSpace=wrap;html=1;" vertex="1" parent="1">
          <mxGeometry x="581" y="440" width="90" height="30" as="geometry" />
        </mxCell>
        <mxCell id="w0-OReC6eNyjPVK1eubu-194" value="" style="rounded=0;whiteSpace=wrap;html=1;" vertex="1" parent="1">
          <mxGeometry x="721" y="345" width="90" height="30" as="geometry" />
        </mxCell>
        <mxCell id="w0-OReC6eNyjPVK1eubu-195" value="" style="endArrow=classic;html=1;rounded=0;exitX=0.5;exitY=1;exitDx=0;exitDy=0;entryX=0.5;entryY=0;entryDx=0;entryDy=0;" edge="1" parent="1" source="w0-OReC6eNyjPVK1eubu-154" target="w0-OReC6eNyjPVK1eubu-189">
          <mxGeometry width="50" height="50" relative="1" as="geometry">
            <mxPoint x="531" y="350" as="sourcePoint" />
            <mxPoint x="581" y="300" as="targetPoint" />
          </mxGeometry>
        </mxCell>
        <mxCell id="w0-OReC6eNyjPVK1eubu-196" value="" style="endArrow=classic;html=1;rounded=0;exitX=1;exitY=0.5;exitDx=0;exitDy=0;entryX=0;entryY=0.5;entryDx=0;entryDy=0;" edge="1" parent="1" source="w0-OReC6eNyjPVK1eubu-154" target="w0-OReC6eNyjPVK1eubu-188">
          <mxGeometry width="50" height="50" relative="1" as="geometry">
            <mxPoint x="541" y="360" as="sourcePoint" />
            <mxPoint x="591" y="310" as="targetPoint" />
          </mxGeometry>
        </mxCell>
        <mxCell id="w0-OReC6eNyjPVK1eubu-197" value="" style="endArrow=classic;html=1;rounded=0;exitX=1;exitY=1;exitDx=0;exitDy=0;entryX=0;entryY=0;entryDx=0;entryDy=0;" edge="1" parent="1" source="w0-OReC6eNyjPVK1eubu-154" target="w0-OReC6eNyjPVK1eubu-190">
          <mxGeometry width="50" height="50" relative="1" as="geometry">
            <mxPoint x="551" y="370" as="sourcePoint" />
            <mxPoint x="601" y="320" as="targetPoint" />
          </mxGeometry>
        </mxCell>
        <mxCell id="w0-OReC6eNyjPVK1eubu-198" value="" style="endArrow=classic;html=1;rounded=0;exitX=0.5;exitY=1;exitDx=0;exitDy=0;entryX=0.5;entryY=0;entryDx=0;entryDy=0;" edge="1" parent="1" source="w0-OReC6eNyjPVK1eubu-189" target="w0-OReC6eNyjPVK1eubu-192">
          <mxGeometry width="50" height="50" relative="1" as="geometry">
            <mxPoint x="561" y="380" as="sourcePoint" />
            <mxPoint x="611" y="330" as="targetPoint" />
          </mxGeometry>
        </mxCell>
        <mxCell id="w0-OReC6eNyjPVK1eubu-199" value="" style="endArrow=classic;html=1;rounded=0;exitX=1;exitY=0.5;exitDx=0;exitDy=0;entryX=0;entryY=0.5;entryDx=0;entryDy=0;" edge="1" parent="1" source="w0-OReC6eNyjPVK1eubu-192" target="w0-OReC6eNyjPVK1eubu-194">
          <mxGeometry width="50" height="50" relative="1" as="geometry">
            <mxPoint x="571" y="390" as="sourcePoint" />
            <mxPoint x="621" y="340" as="targetPoint" />
          </mxGeometry>
        </mxCell>
        <mxCell id="w0-OReC6eNyjPVK1eubu-200" value="" style="endArrow=classic;html=1;rounded=0;exitX=0.5;exitY=1;exitDx=0;exitDy=0;entryX=0.5;entryY=0;entryDx=0;entryDy=0;" edge="1" parent="1" source="w0-OReC6eNyjPVK1eubu-192" target="w0-OReC6eNyjPVK1eubu-193">
          <mxGeometry width="50" height="50" relative="1" as="geometry">
            <mxPoint x="581" y="400" as="sourcePoint" />
            <mxPoint x="631" y="350" as="targetPoint" />
          </mxGeometry>
        </mxCell>
        <mxCell id="w0-OReC6eNyjPVK1eubu-203" value="" style="ellipse;whiteSpace=wrap;html=1;aspect=fixed;fillColor=#FFFFFF;" vertex="1" parent="1">
          <mxGeometry x="200" y="545" width="30" height="30" as="geometry" />
        </mxCell>
        <mxCell id="w0-OReC6eNyjPVK1eubu-202" value="" style="ellipse;whiteSpace=wrap;html=1;aspect=fixed;fillColor=#000000;" vertex="1" parent="1">
          <mxGeometry x="205" y="550" width="20" height="20" as="geometry" />
        </mxCell>
        <mxCell id="w0-OReC6eNyjPVK1eubu-205" value="" style="ellipse;whiteSpace=wrap;html=1;aspect=fixed;fillColor=#FFFFFF;" vertex="1" parent="1">
          <mxGeometry x="611" y="545" width="30" height="30" as="geometry" />
        </mxCell>
        <mxCell id="w0-OReC6eNyjPVK1eubu-206" value="" style="ellipse;whiteSpace=wrap;html=1;aspect=fixed;fillColor=#000000;" vertex="1" parent="1">
          <mxGeometry x="616" y="550" width="20" height="20" as="geometry" />
        </mxCell>
        <mxCell id="w0-OReC6eNyjPVK1eubu-207" value="" style="ellipse;whiteSpace=wrap;html=1;aspect=fixed;fillColor=#FFFFFF;" vertex="1" parent="1">
          <mxGeometry x="405" y="545" width="30" height="30" as="geometry" />
        </mxCell>
        <mxCell id="w0-OReC6eNyjPVK1eubu-208" value="" style="ellipse;whiteSpace=wrap;html=1;aspect=fixed;fillColor=#000000;" vertex="1" parent="1">
          <mxGeometry x="410" y="550" width="20" height="20" as="geometry" />
        </mxCell>
        <mxCell id="w0-OReC6eNyjPVK1eubu-212" value="" style="endArrow=classic;html=1;rounded=0;exitX=0.5;exitY=1;exitDx=0;exitDy=0;entryX=0.5;entryY=0;entryDx=0;entryDy=0;" edge="1" parent="1" source="w0-OReC6eNyjPVK1eubu-246" target="w0-OReC6eNyjPVK1eubu-203">
          <mxGeometry width="50" height="50" relative="1" as="geometry">
            <mxPoint x="76" y="470" as="sourcePoint" />
            <mxPoint x="86" y="450" as="targetPoint" />
          </mxGeometry>
        </mxCell>
        <mxCell id="w0-OReC6eNyjPVK1eubu-213" value="" style="endArrow=classic;html=1;rounded=0;exitX=0.5;exitY=1;exitDx=0;exitDy=0;entryX=0.5;entryY=0;entryDx=0;entryDy=0;" edge="1" parent="1">
          <mxGeometry width="50" height="50" relative="1" as="geometry">
            <mxPoint x="420.5" y="470" as="sourcePoint" />
            <mxPoint x="420.5" y="545" as="targetPoint" />
          </mxGeometry>
        </mxCell>
        <mxCell id="w0-OReC6eNyjPVK1eubu-218" value="" style="endArrow=none;html=1;rounded=0;entryX=1;entryY=0.5;entryDx=0;entryDy=0;" edge="1" parent="1" target="w0-OReC6eNyjPVK1eubu-188">
          <mxGeometry width="50" height="50" relative="1" as="geometry">
            <mxPoint x="826" y="185" as="sourcePoint" />
            <mxPoint x="846" y="460" as="targetPoint" />
          </mxGeometry>
        </mxCell>
        <mxCell id="w0-OReC6eNyjPVK1eubu-219" value="" style="endArrow=none;html=1;rounded=0;" edge="1" parent="1">
          <mxGeometry width="50" height="50" relative="1" as="geometry">
            <mxPoint x="826" y="520" as="sourcePoint" />
            <mxPoint x="826" y="185" as="targetPoint" />
          </mxGeometry>
        </mxCell>
        <mxCell id="w0-OReC6eNyjPVK1eubu-220" value="" style="endArrow=none;html=1;rounded=0;" edge="1" parent="1">
          <mxGeometry width="50" height="50" relative="1" as="geometry">
            <mxPoint x="346" y="520" as="sourcePoint" />
            <mxPoint x="496" y="520" as="targetPoint" />
          </mxGeometry>
        </mxCell>
        <mxCell id="w0-OReC6eNyjPVK1eubu-221" value="" style="endArrow=none;html=1;rounded=0;exitX=0.5;exitY=1;exitDx=0;exitDy=0;" edge="1" parent="1" source="w0-OReC6eNyjPVK1eubu-178">
          <mxGeometry width="50" height="50" relative="1" as="geometry">
            <mxPoint x="351" y="525" as="sourcePoint" />
            <mxPoint x="346" y="520" as="targetPoint" />
          </mxGeometry>
        </mxCell>
        <mxCell id="w0-OReC6eNyjPVK1eubu-222" value="" style="endArrow=none;html=1;rounded=0;exitX=0.5;exitY=1;exitDx=0;exitDy=0;" edge="1" parent="1" source="w0-OReC6eNyjPVK1eubu-180">
          <mxGeometry width="50" height="50" relative="1" as="geometry">
            <mxPoint x="351" y="275" as="sourcePoint" />
            <mxPoint x="496" y="520" as="targetPoint" />
          </mxGeometry>
        </mxCell>
        <mxCell id="w0-OReC6eNyjPVK1eubu-223" value="" style="endArrow=none;html=1;rounded=0;fontFamily=Helvetica;exitX=0;exitY=0.5;exitDx=0;exitDy=0;" edge="1" parent="1" source="w0-OReC6eNyjPVK1eubu-158">
          <mxGeometry width="50" height="50" relative="1" as="geometry">
            <mxPoint x="535" y="375" as="sourcePoint" />
            <mxPoint x="216" y="520" as="targetPoint" />
            <Array as="points">
              <mxPoint y="185" />
              <mxPoint y="520" />
            </Array>
          </mxGeometry>
        </mxCell>
        <mxCell id="w0-OReC6eNyjPVK1eubu-225" value="" style="endArrow=classic;html=1;rounded=0;exitX=0.5;exitY=1;exitDx=0;exitDy=0;entryX=0.5;entryY=0;entryDx=0;entryDy=0;" edge="1" parent="1" source="w0-OReC6eNyjPVK1eubu-151" target="w0-OReC6eNyjPVK1eubu-152">
          <mxGeometry width="50" height="50" relative="1" as="geometry">
            <mxPoint x="508" y="350" as="sourcePoint" />
            <mxPoint x="558" y="300" as="targetPoint" />
          </mxGeometry>
        </mxCell>
        <mxCell id="w0-OReC6eNyjPVK1eubu-226" value="view profile" style="text;html=1;strokeColor=none;fillColor=none;align=center;verticalAlign=middle;whiteSpace=wrap;rounded=0;" vertex="1" parent="1">
          <mxGeometry x="24" y="170" width="68" height="30" as="geometry" />
        </mxCell>
        <mxCell id="w0-OReC6eNyjPVK1eubu-227" value="check booking" style="text;html=1;strokeColor=none;fillColor=none;align=center;verticalAlign=middle;whiteSpace=wrap;rounded=0;" vertex="1" parent="1">
          <mxGeometry x="177" y="240" width="80" height="30" as="geometry" />
        </mxCell>
        <mxCell id="w0-OReC6eNyjPVK1eubu-228" value="create booking" style="text;html=1;strokeColor=none;fillColor=none;align=center;verticalAlign=middle;whiteSpace=wrap;rounded=0;" vertex="1" parent="1">
          <mxGeometry x="16" y="240" width="84" height="30" as="geometry" />
        </mxCell>
        <mxCell id="w0-OReC6eNyjPVK1eubu-229" value="view profile" style="text;html=1;strokeColor=none;fillColor=none;align=center;verticalAlign=middle;whiteSpace=wrap;rounded=0;" vertex="1" parent="1">
          <mxGeometry x="734" y="170" width="64" height="30" as="geometry" />
        </mxCell>
        <mxCell id="w0-OReC6eNyjPVK1eubu-230" value="get bookings" style="text;html=1;strokeColor=none;fillColor=none;align=center;verticalAlign=middle;whiteSpace=wrap;rounded=0;" vertex="1" parent="1">
          <mxGeometry x="590" y="170" width="72" height="30" as="geometry" />
        </mxCell>
        <mxCell id="w0-OReC6eNyjPVK1eubu-231" value="login" style="text;html=1;strokeColor=none;fillColor=none;align=center;verticalAlign=middle;whiteSpace=wrap;rounded=0;" vertex="1" parent="1">
          <mxGeometry x="390" y="95" width="60" height="30" as="geometry" />
        </mxCell>
        <mxCell id="w0-OReC6eNyjPVK1eubu-232" value="get bookings" style="text;html=1;strokeColor=none;fillColor=none;align=center;verticalAlign=middle;whiteSpace=wrap;rounded=0;" vertex="1" parent="1">
          <mxGeometry x="177" y="170" width="78" height="30" as="geometry" />
        </mxCell>
        <mxCell id="w0-OReC6eNyjPVK1eubu-233" value="complete booking" style="text;html=1;strokeColor=none;fillColor=none;align=center;verticalAlign=middle;whiteSpace=wrap;rounded=0;" vertex="1" parent="1">
          <mxGeometry x="592" y="240" width="60" height="30" as="geometry" />
        </mxCell>
        <mxCell id="w0-OReC6eNyjPVK1eubu-234" value="&lt;font style=&quot;font-size: 11px;&quot;&gt;check complaint&lt;/font&gt;" style="text;html=1;strokeColor=none;fillColor=none;align=center;verticalAlign=middle;whiteSpace=wrap;rounded=0;" vertex="1" parent="1">
          <mxGeometry x="456" y="240" width="82" height="30" as="geometry" />
        </mxCell>
        <mxCell id="w0-OReC6eNyjPVK1eubu-235" value="view peofile" style="text;html=1;strokeColor=none;fillColor=none;align=center;verticalAlign=middle;whiteSpace=wrap;rounded=0;" vertex="1" parent="1">
          <mxGeometry x="310" y="240" width="72" height="30" as="geometry" />
        </mxCell>
        <mxCell id="w0-OReC6eNyjPVK1eubu-236" value="get complaints" style="text;html=1;strokeColor=none;fillColor=none;align=center;verticalAlign=middle;whiteSpace=wrap;rounded=0;" vertex="1" parent="1">
          <mxGeometry x="380" y="170" width="82" height="30" as="geometry" />
        </mxCell>
        <mxCell id="w0-OReC6eNyjPVK1eubu-237" value="get cleaner" style="text;html=1;strokeColor=none;fillColor=none;align=center;verticalAlign=middle;whiteSpace=wrap;rounded=0;" vertex="1" parent="1">
          <mxGeometry x="386.5" y="375" width="69" height="30" as="geometry" />
        </mxCell>
        <mxCell id="w0-OReC6eNyjPVK1eubu-238" value="get cleaners" style="text;html=1;strokeColor=none;fillColor=none;align=center;verticalAlign=middle;whiteSpace=wrap;rounded=0;" vertex="1" parent="1">
          <mxGeometry x="386.5" y="310" width="69" height="30" as="geometry" />
        </mxCell>
        <mxCell id="w0-OReC6eNyjPVK1eubu-239" value="leave complain" style="text;html=1;strokeColor=none;fillColor=none;align=center;verticalAlign=middle;whiteSpace=wrap;rounded=0;fontSize=11;" vertex="1" parent="1">
          <mxGeometry x="28" y="345" width="60" height="30" as="geometry" />
        </mxCell>
        <mxCell id="w0-OReC6eNyjPVK1eubu-240" value="&lt;font style=&quot;font-size: 11px;&quot;&gt;accept booking&lt;/font&gt;" style="text;html=1;strokeColor=none;fillColor=none;align=center;verticalAlign=middle;whiteSpace=wrap;rounded=0;" vertex="1" parent="1">
          <mxGeometry x="736" y="240" width="60" height="30" as="geometry" />
        </mxCell>
        <mxCell id="w0-OReC6eNyjPVK1eubu-241" value="&lt;font style=&quot;font-size: 11px;&quot;&gt;mark successful&lt;/font&gt;" style="text;html=1;strokeColor=none;fillColor=none;align=center;verticalAlign=middle;whiteSpace=wrap;rounded=0;" vertex="1" parent="1">
          <mxGeometry x="736" y="345" width="60" height="30" as="geometry" />
        </mxCell>
        <mxCell id="w0-OReC6eNyjPVK1eubu-242" value="&lt;font style=&quot;font-size: 11px;&quot;&gt;was success?&lt;/font&gt;" style="text;html=1;strokeColor=none;fillColor=none;align=center;verticalAlign=middle;whiteSpace=wrap;rounded=0;" vertex="1" parent="1">
          <mxGeometry x="596" y="340" width="60" height="30" as="geometry" />
        </mxCell>
        <mxCell id="w0-OReC6eNyjPVK1eubu-243" value="have complain?" style="text;html=1;strokeColor=none;fillColor=none;align=center;verticalAlign=middle;whiteSpace=wrap;rounded=0;fontSize=11;" vertex="1" parent="1">
          <mxGeometry x="192.44" y="348" width="49.12" height="16" as="geometry" />
        </mxCell>
        <mxCell id="w0-OReC6eNyjPVK1eubu-244" value="mark failure" style="text;html=1;strokeColor=none;fillColor=none;align=center;verticalAlign=middle;whiteSpace=wrap;rounded=0;" vertex="1" parent="1">
          <mxGeometry x="592" y="440" width="68" height="30" as="geometry" />
        </mxCell>
        <mxCell id="w0-OReC6eNyjPVK1eubu-245" value="&lt;font style=&quot;font-size: 11px;&quot;&gt;mark attendance&lt;/font&gt;" style="text;html=1;strokeColor=none;fillColor=none;align=center;verticalAlign=middle;whiteSpace=wrap;rounded=0;" vertex="1" parent="1">
          <mxGeometry x="390" y="440" width="60" height="30" as="geometry" />
        </mxCell>
        <mxCell id="w0-OReC6eNyjPVK1eubu-246" value="leave review" style="text;html=1;strokeColor=none;fillColor=none;align=center;verticalAlign=middle;whiteSpace=wrap;rounded=0;" vertex="1" parent="1">
          <mxGeometry x="180" y="440" width="70" height="30" as="geometry" />
        </mxCell>
        <mxCell id="w0-OReC6eNyjPVK1eubu-248" value="" style="endArrow=classic;html=1;rounded=0;exitX=0.5;exitY=1;exitDx=0;exitDy=0;entryX=0.5;entryY=0;entryDx=0;entryDy=0;" edge="1" parent="1" source="w0-OReC6eNyjPVK1eubu-244" target="w0-OReC6eNyjPVK1eubu-205">
          <mxGeometry width="50" height="50" relative="1" as="geometry">
            <mxPoint x="630" y="394" as="sourcePoint" />
            <mxPoint x="630" y="444" as="targetPoint" />
          </mxGeometry>
        </mxCell>
        <mxCell id="w0-OReC6eNyjPVK1eubu-251" value="" style="endArrow=none;html=1;rounded=0;" edge="1" parent="1">
          <mxGeometry width="50" height="50" relative="1" as="geometry">
            <mxPoint x="824" y="520" as="sourcePoint" />
            <mxPoint x="627" y="520" as="targetPoint" />
          </mxGeometry>
        </mxCell>
        <mxCell id="w0-OReC6eNyjPVK1eubu-252" value="is student" style="text;html=1;strokeColor=none;fillColor=none;align=center;verticalAlign=middle;whiteSpace=wrap;rounded=0;" vertex="1" parent="1">
          <mxGeometry x="272" y="80" width="60" height="30" as="geometry" />
        </mxCell>
        <mxCell id="w0-OReC6eNyjPVK1eubu-253" value="no" style="text;html=1;strokeColor=none;fillColor=none;align=center;verticalAlign=middle;whiteSpace=wrap;rounded=0;" vertex="1" parent="1">
          <mxGeometry x="576" y="396" width="60" height="30" as="geometry" />
        </mxCell>
        <mxCell id="w0-OReC6eNyjPVK1eubu-254" value="yes" style="text;html=1;strokeColor=none;fillColor=none;align=center;verticalAlign=middle;whiteSpace=wrap;rounded=0;" vertex="1" parent="1">
          <mxGeometry x="652" y="334" width="60" height="30" as="geometry" />
        </mxCell>
        <mxCell id="w0-OReC6eNyjPVK1eubu-255" value="no" style="text;html=1;strokeColor=none;fillColor=none;align=center;verticalAlign=middle;whiteSpace=wrap;rounded=0;" vertex="1" parent="1">
          <mxGeometry x="208" y="396" width="60" height="30" as="geometry" />
        </mxCell>
        <mxCell id="w0-OReC6eNyjPVK1eubu-256" value="yes" style="text;html=1;strokeColor=none;fillColor=none;align=center;verticalAlign=middle;whiteSpace=wrap;rounded=0;" vertex="1" parent="1">
          <mxGeometry x="116" y="330" width="60" height="30" as="geometry" />
        </mxCell>
        <mxCell id="w0-OReC6eNyjPVK1eubu-257" value="is cleaner" style="text;html=1;strokeColor=none;fillColor=none;align=center;verticalAlign=middle;whiteSpace=wrap;rounded=0;" vertex="1" parent="1">
          <mxGeometry x="504" y="80" width="60" height="30" as="geometry" />
        </mxCell>
        <mxCell id="w0-OReC6eNyjPVK1eubu-258" value="is supervisor" style="text;html=1;strokeColor=none;fillColor=none;align=center;verticalAlign=middle;whiteSpace=wrap;rounded=0;" vertex="1" parent="1">
          <mxGeometry x="432" y="136" width="72" height="30" as="geometry" />
        </mxCell>
      </root>
    </mxGraphModel>
  </diagram>
  <diagram id="VrtQ4cOUqTwHxvRyyivX" name="Swimlane Diagram">
    <mxGraphModel dx="2183" dy="725" grid="1" gridSize="4" guides="1" tooltips="1" connect="1" arrows="1" fold="1" page="1" pageScale="1" pageWidth="827" pageHeight="1169" math="0" shadow="0">
      <root>
        <mxCell id="0" />
        <mxCell id="1" parent="0" />
        <mxCell id="TwPkUrU1rlWBmwZkXrkA-1" value="" style="ellipse;whiteSpace=wrap;html=1;aspect=fixed;fillColor=#000000;" vertex="1" parent="1">
          <mxGeometry x="411" y="30" width="20" height="20" as="geometry" />
        </mxCell>
        <mxCell id="TwPkUrU1rlWBmwZkXrkA-3" value="" style="rounded=0;whiteSpace=wrap;html=1;" vertex="1" parent="1">
          <mxGeometry x="171" y="170" width="90" height="30" as="geometry" />
        </mxCell>
        <mxCell id="TwPkUrU1rlWBmwZkXrkA-4" value="" style="rounded=0;whiteSpace=wrap;html=1;" vertex="1" parent="1">
          <mxGeometry x="581" y="170" width="90" height="30" as="geometry" />
        </mxCell>
        <mxCell id="TwPkUrU1rlWBmwZkXrkA-5" value="" style="rounded=0;whiteSpace=wrap;html=1;" vertex="1" parent="1">
          <mxGeometry x="376" y="170" width="90" height="30" as="geometry" />
        </mxCell>
        <mxCell id="TwPkUrU1rlWBmwZkXrkA-6" value="" style="rounded=0;whiteSpace=wrap;html=1;" vertex="1" parent="1">
          <mxGeometry x="13" y="240" width="90" height="30" as="geometry" />
        </mxCell>
        <mxCell id="TwPkUrU1rlWBmwZkXrkA-7" value="" style="rounded=0;whiteSpace=wrap;html=1;" vertex="1" parent="1">
          <mxGeometry x="13" y="170" width="90" height="30" as="geometry" />
        </mxCell>
        <mxCell id="TwPkUrU1rlWBmwZkXrkA-8" value="" style="rounded=0;whiteSpace=wrap;html=1;" vertex="1" parent="1">
          <mxGeometry x="171" y="240" width="90" height="30" as="geometry" />
        </mxCell>
        <mxCell id="TwPkUrU1rlWBmwZkXrkA-9" value="" style="endArrow=classic;html=1;rounded=0;exitX=0;exitY=0.5;exitDx=0;exitDy=0;entryX=1;entryY=0.5;entryDx=0;entryDy=0;" edge="1" parent="1" source="TwPkUrU1rlWBmwZkXrkA-3" target="TwPkUrU1rlWBmwZkXrkA-7">
          <mxGeometry width="50" height="50" relative="1" as="geometry">
            <mxPoint x="531" y="230" as="sourcePoint" />
            <mxPoint x="121" y="185" as="targetPoint" />
          </mxGeometry>
        </mxCell>
        <mxCell id="TwPkUrU1rlWBmwZkXrkA-10" value="" style="endArrow=classic;html=1;rounded=0;exitX=0;exitY=1;exitDx=0;exitDy=0;entryX=1;entryY=0;entryDx=0;entryDy=0;" edge="1" parent="1" source="TwPkUrU1rlWBmwZkXrkA-3" target="TwPkUrU1rlWBmwZkXrkA-6">
          <mxGeometry width="50" height="50" relative="1" as="geometry">
            <mxPoint x="181" y="195" as="sourcePoint" />
            <mxPoint x="121" y="240" as="targetPoint" />
          </mxGeometry>
        </mxCell>
        <mxCell id="TwPkUrU1rlWBmwZkXrkA-11" value="" style="endArrow=classic;html=1;rounded=0;exitX=0.5;exitY=1;exitDx=0;exitDy=0;entryX=0.5;entryY=0;entryDx=0;entryDy=0;" edge="1" parent="1" source="TwPkUrU1rlWBmwZkXrkA-3" target="TwPkUrU1rlWBmwZkXrkA-8">
          <mxGeometry width="50" height="50" relative="1" as="geometry">
            <mxPoint x="191" y="205" as="sourcePoint" />
            <mxPoint x="141" y="205" as="targetPoint" />
          </mxGeometry>
        </mxCell>
        <mxCell id="TwPkUrU1rlWBmwZkXrkA-12" value="" style="rhombus;whiteSpace=wrap;html=1;" vertex="1" parent="1">
          <mxGeometry x="181" y="330" width="70" height="60" as="geometry" />
        </mxCell>
        <mxCell id="TwPkUrU1rlWBmwZkXrkA-16" value="" style="rounded=0;whiteSpace=wrap;html=1;" vertex="1" parent="1">
          <mxGeometry x="171" y="440" width="90" height="30" as="geometry" />
        </mxCell>
        <mxCell id="TwPkUrU1rlWBmwZkXrkA-17" value="" style="rounded=0;whiteSpace=wrap;html=1;" vertex="1" parent="1">
          <mxGeometry x="13" y="345" width="90" height="30" as="geometry" />
        </mxCell>
        <mxCell id="TwPkUrU1rlWBmwZkXrkA-18" value="" style="endArrow=classic;html=1;rounded=0;exitX=0.5;exitY=1;exitDx=0;exitDy=0;entryX=0.5;entryY=0;entryDx=0;entryDy=0;" edge="1" parent="1" source="TwPkUrU1rlWBmwZkXrkA-12" target="TwPkUrU1rlWBmwZkXrkA-16">
          <mxGeometry width="50" height="50" relative="1" as="geometry">
            <mxPoint x="531" y="350" as="sourcePoint" />
            <mxPoint x="581" y="300" as="targetPoint" />
          </mxGeometry>
        </mxCell>
        <mxCell id="TwPkUrU1rlWBmwZkXrkA-19" value="" style="endArrow=classic;html=1;rounded=0;exitX=0;exitY=0.5;exitDx=0;exitDy=0;entryX=1;entryY=0.5;entryDx=0;entryDy=0;" edge="1" parent="1" source="TwPkUrU1rlWBmwZkXrkA-12" target="TwPkUrU1rlWBmwZkXrkA-17">
          <mxGeometry width="50" height="50" relative="1" as="geometry">
            <mxPoint x="226" y="400" as="sourcePoint" />
            <mxPoint x="121" y="360" as="targetPoint" />
          </mxGeometry>
        </mxCell>
        <mxCell id="TwPkUrU1rlWBmwZkXrkA-20" value="" style="endArrow=classic;html=1;rounded=0;exitX=0.5;exitY=1;exitDx=0;exitDy=0;entryX=0.5;entryY=0;entryDx=0;entryDy=0;" edge="1" parent="1" source="TwPkUrU1rlWBmwZkXrkA-8" target="TwPkUrU1rlWBmwZkXrkA-12">
          <mxGeometry width="50" height="50" relative="1" as="geometry">
            <mxPoint x="236" y="410" as="sourcePoint" />
            <mxPoint x="236" y="460" as="targetPoint" />
          </mxGeometry>
        </mxCell>
        <mxCell id="TwPkUrU1rlWBmwZkXrkA-21" value="" style="endArrow=classic;html=1;rounded=0;exitX=0.5;exitY=1;exitDx=0;exitDy=0;entryX=0;entryY=0.5;entryDx=0;entryDy=0;" edge="1" parent="1" source="TwPkUrU1rlWBmwZkXrkA-72" target="TwPkUrU1rlWBmwZkXrkA-16">
          <mxGeometry width="50" height="50" relative="1" as="geometry">
            <mxPoint x="103" y="455" as="sourcePoint" />
            <mxPoint x="176" y="508" as="targetPoint" />
            <Array as="points">
              <mxPoint x="58" y="455" />
            </Array>
          </mxGeometry>
        </mxCell>
        <mxCell id="TwPkUrU1rlWBmwZkXrkA-22" value="" style="rounded=0;whiteSpace=wrap;html=1;" vertex="1" parent="1">
          <mxGeometry x="301" y="240" width="90" height="30" as="geometry" />
        </mxCell>
        <mxCell id="TwPkUrU1rlWBmwZkXrkA-23" value="" style="rounded=0;whiteSpace=wrap;html=1;" vertex="1" parent="1">
          <mxGeometry x="376" y="310" width="90" height="30" as="geometry" />
        </mxCell>
        <mxCell id="TwPkUrU1rlWBmwZkXrkA-24" value="" style="rounded=0;whiteSpace=wrap;html=1;" vertex="1" parent="1">
          <mxGeometry x="451" y="240" width="90" height="30" as="geometry" />
        </mxCell>
        <mxCell id="TwPkUrU1rlWBmwZkXrkA-25" value="" style="endArrow=classic;html=1;rounded=0;exitX=0;exitY=0.5;exitDx=0;exitDy=0;entryX=0.5;entryY=0;entryDx=0;entryDy=0;" edge="1" parent="1" source="TwPkUrU1rlWBmwZkXrkA-5" target="TwPkUrU1rlWBmwZkXrkA-22">
          <mxGeometry width="50" height="50" relative="1" as="geometry">
            <mxPoint x="531" y="350" as="sourcePoint" />
            <mxPoint x="581" y="300" as="targetPoint" />
            <Array as="points">
              <mxPoint x="346" y="185" />
            </Array>
          </mxGeometry>
        </mxCell>
        <mxCell id="TwPkUrU1rlWBmwZkXrkA-26" value="" style="endArrow=classic;html=1;rounded=0;exitX=0.5;exitY=1;exitDx=0;exitDy=0;entryX=0.5;entryY=0;entryDx=0;entryDy=0;" edge="1" parent="1" source="TwPkUrU1rlWBmwZkXrkA-5" target="TwPkUrU1rlWBmwZkXrkA-23">
          <mxGeometry width="50" height="50" relative="1" as="geometry">
            <mxPoint x="226" y="210" as="sourcePoint" />
            <mxPoint x="226" y="250" as="targetPoint" />
          </mxGeometry>
        </mxCell>
        <mxCell id="TwPkUrU1rlWBmwZkXrkA-27" value="" style="endArrow=classic;html=1;rounded=0;exitX=1;exitY=0.5;exitDx=0;exitDy=0;entryX=0.5;entryY=0;entryDx=0;entryDy=0;" edge="1" parent="1" source="TwPkUrU1rlWBmwZkXrkA-5" target="TwPkUrU1rlWBmwZkXrkA-24">
          <mxGeometry width="50" height="50" relative="1" as="geometry">
            <mxPoint x="431" y="210" as="sourcePoint" />
            <mxPoint x="431" y="320" as="targetPoint" />
            <Array as="points">
              <mxPoint x="496" y="185" />
            </Array>
          </mxGeometry>
        </mxCell>
        <mxCell id="TwPkUrU1rlWBmwZkXrkA-28" value="" style="rounded=0;whiteSpace=wrap;html=1;" vertex="1" parent="1">
          <mxGeometry x="376" y="375" width="90" height="30" as="geometry" />
        </mxCell>
        <mxCell id="TwPkUrU1rlWBmwZkXrkA-29" value="" style="rounded=0;whiteSpace=wrap;html=1;" vertex="1" parent="1">
          <mxGeometry x="376" y="440" width="90" height="30" as="geometry" />
        </mxCell>
        <mxCell id="TwPkUrU1rlWBmwZkXrkA-30" value="" style="endArrow=classic;html=1;rounded=0;exitX=0.5;exitY=1;exitDx=0;exitDy=0;entryX=0.5;entryY=0;entryDx=0;entryDy=0;" edge="1" parent="1" source="TwPkUrU1rlWBmwZkXrkA-28" target="TwPkUrU1rlWBmwZkXrkA-29">
          <mxGeometry width="50" height="50" relative="1" as="geometry">
            <mxPoint x="431" y="210" as="sourcePoint" />
            <mxPoint x="431" y="320" as="targetPoint" />
          </mxGeometry>
        </mxCell>
        <mxCell id="TwPkUrU1rlWBmwZkXrkA-31" value="" style="endArrow=classic;html=1;rounded=0;exitX=0.5;exitY=1;exitDx=0;exitDy=0;entryX=0.5;entryY=0;entryDx=0;entryDy=0;" edge="1" parent="1" source="TwPkUrU1rlWBmwZkXrkA-23" target="TwPkUrU1rlWBmwZkXrkA-28">
          <mxGeometry width="50" height="50" relative="1" as="geometry">
            <mxPoint x="441" y="220" as="sourcePoint" />
            <mxPoint x="441" y="330" as="targetPoint" />
          </mxGeometry>
        </mxCell>
        <mxCell id="TwPkUrU1rlWBmwZkXrkA-32" value="" style="rounded=0;whiteSpace=wrap;html=1;" vertex="1" parent="1">
          <mxGeometry x="721" y="170" width="90" height="30" as="geometry" />
        </mxCell>
        <mxCell id="TwPkUrU1rlWBmwZkXrkA-33" value="" style="rounded=0;whiteSpace=wrap;html=1;" vertex="1" parent="1">
          <mxGeometry x="581" y="240" width="90" height="30" as="geometry" />
        </mxCell>
        <mxCell id="TwPkUrU1rlWBmwZkXrkA-34" value="" style="rounded=0;whiteSpace=wrap;html=1;" vertex="1" parent="1">
          <mxGeometry x="721" y="240" width="90" height="30" as="geometry" />
        </mxCell>
        <mxCell id="TwPkUrU1rlWBmwZkXrkA-35" value="" style="rhombus;whiteSpace=wrap;html=1;" vertex="1" parent="1">
          <mxGeometry x="591" y="330" width="70" height="60" as="geometry" />
        </mxCell>
        <mxCell id="TwPkUrU1rlWBmwZkXrkA-36" value="" style="rounded=0;whiteSpace=wrap;html=1;" vertex="1" parent="1">
          <mxGeometry x="581" y="440" width="90" height="30" as="geometry" />
        </mxCell>
        <mxCell id="TwPkUrU1rlWBmwZkXrkA-37" value="" style="rounded=0;whiteSpace=wrap;html=1;" vertex="1" parent="1">
          <mxGeometry x="721" y="345" width="90" height="30" as="geometry" />
        </mxCell>
        <mxCell id="TwPkUrU1rlWBmwZkXrkA-38" value="" style="endArrow=classic;html=1;rounded=0;exitX=0.5;exitY=1;exitDx=0;exitDy=0;entryX=0.5;entryY=0;entryDx=0;entryDy=0;" edge="1" parent="1" source="TwPkUrU1rlWBmwZkXrkA-4" target="TwPkUrU1rlWBmwZkXrkA-33">
          <mxGeometry width="50" height="50" relative="1" as="geometry">
            <mxPoint x="531" y="350" as="sourcePoint" />
            <mxPoint x="581" y="300" as="targetPoint" />
          </mxGeometry>
        </mxCell>
        <mxCell id="TwPkUrU1rlWBmwZkXrkA-39" value="" style="endArrow=classic;html=1;rounded=0;exitX=1;exitY=0.5;exitDx=0;exitDy=0;entryX=0;entryY=0.5;entryDx=0;entryDy=0;" edge="1" parent="1" source="TwPkUrU1rlWBmwZkXrkA-4" target="TwPkUrU1rlWBmwZkXrkA-32">
          <mxGeometry width="50" height="50" relative="1" as="geometry">
            <mxPoint x="541" y="360" as="sourcePoint" />
            <mxPoint x="591" y="310" as="targetPoint" />
          </mxGeometry>
        </mxCell>
        <mxCell id="TwPkUrU1rlWBmwZkXrkA-40" value="" style="endArrow=classic;html=1;rounded=0;exitX=1;exitY=1;exitDx=0;exitDy=0;entryX=0;entryY=0;entryDx=0;entryDy=0;" edge="1" parent="1" source="TwPkUrU1rlWBmwZkXrkA-4" target="TwPkUrU1rlWBmwZkXrkA-34">
          <mxGeometry width="50" height="50" relative="1" as="geometry">
            <mxPoint x="551" y="370" as="sourcePoint" />
            <mxPoint x="601" y="320" as="targetPoint" />
          </mxGeometry>
        </mxCell>
        <mxCell id="TwPkUrU1rlWBmwZkXrkA-41" value="" style="endArrow=classic;html=1;rounded=0;exitX=0.5;exitY=1;exitDx=0;exitDy=0;entryX=0.5;entryY=0;entryDx=0;entryDy=0;" edge="1" parent="1" source="TwPkUrU1rlWBmwZkXrkA-33" target="TwPkUrU1rlWBmwZkXrkA-35">
          <mxGeometry width="50" height="50" relative="1" as="geometry">
            <mxPoint x="561" y="380" as="sourcePoint" />
            <mxPoint x="611" y="330" as="targetPoint" />
          </mxGeometry>
        </mxCell>
        <mxCell id="TwPkUrU1rlWBmwZkXrkA-42" value="" style="endArrow=classic;html=1;rounded=0;exitX=1;exitY=0.5;exitDx=0;exitDy=0;entryX=0;entryY=0.5;entryDx=0;entryDy=0;" edge="1" parent="1" source="TwPkUrU1rlWBmwZkXrkA-35" target="TwPkUrU1rlWBmwZkXrkA-37">
          <mxGeometry width="50" height="50" relative="1" as="geometry">
            <mxPoint x="571" y="390" as="sourcePoint" />
            <mxPoint x="621" y="340" as="targetPoint" />
          </mxGeometry>
        </mxCell>
        <mxCell id="TwPkUrU1rlWBmwZkXrkA-43" value="" style="endArrow=classic;html=1;rounded=0;exitX=0.5;exitY=1;exitDx=0;exitDy=0;entryX=0.5;entryY=0;entryDx=0;entryDy=0;" edge="1" parent="1" source="TwPkUrU1rlWBmwZkXrkA-35" target="TwPkUrU1rlWBmwZkXrkA-36">
          <mxGeometry width="50" height="50" relative="1" as="geometry">
            <mxPoint x="581" y="400" as="sourcePoint" />
            <mxPoint x="631" y="350" as="targetPoint" />
          </mxGeometry>
        </mxCell>
        <mxCell id="TwPkUrU1rlWBmwZkXrkA-44" value="" style="ellipse;whiteSpace=wrap;html=1;aspect=fixed;fillColor=#FFFFFF;" vertex="1" parent="1">
          <mxGeometry x="200" y="545" width="30" height="30" as="geometry" />
        </mxCell>
        <mxCell id="TwPkUrU1rlWBmwZkXrkA-45" value="" style="ellipse;whiteSpace=wrap;html=1;aspect=fixed;fillColor=#000000;" vertex="1" parent="1">
          <mxGeometry x="205" y="550" width="20" height="20" as="geometry" />
        </mxCell>
        <mxCell id="TwPkUrU1rlWBmwZkXrkA-46" value="" style="ellipse;whiteSpace=wrap;html=1;aspect=fixed;fillColor=#FFFFFF;" vertex="1" parent="1">
          <mxGeometry x="611" y="545" width="30" height="30" as="geometry" />
        </mxCell>
        <mxCell id="TwPkUrU1rlWBmwZkXrkA-47" value="" style="ellipse;whiteSpace=wrap;html=1;aspect=fixed;fillColor=#000000;" vertex="1" parent="1">
          <mxGeometry x="616" y="550" width="20" height="20" as="geometry" />
        </mxCell>
        <mxCell id="TwPkUrU1rlWBmwZkXrkA-48" value="" style="ellipse;whiteSpace=wrap;html=1;aspect=fixed;fillColor=#FFFFFF;" vertex="1" parent="1">
          <mxGeometry x="405" y="545" width="30" height="30" as="geometry" />
        </mxCell>
        <mxCell id="TwPkUrU1rlWBmwZkXrkA-49" value="" style="ellipse;whiteSpace=wrap;html=1;aspect=fixed;fillColor=#000000;" vertex="1" parent="1">
          <mxGeometry x="410" y="550" width="20" height="20" as="geometry" />
        </mxCell>
        <mxCell id="TwPkUrU1rlWBmwZkXrkA-50" value="" style="endArrow=classic;html=1;rounded=0;exitX=0.5;exitY=1;exitDx=0;exitDy=0;entryX=0.5;entryY=0;entryDx=0;entryDy=0;" edge="1" parent="1" source="TwPkUrU1rlWBmwZkXrkA-79" target="TwPkUrU1rlWBmwZkXrkA-44">
          <mxGeometry width="50" height="50" relative="1" as="geometry">
            <mxPoint x="76" y="470" as="sourcePoint" />
            <mxPoint x="86" y="450" as="targetPoint" />
          </mxGeometry>
        </mxCell>
        <mxCell id="TwPkUrU1rlWBmwZkXrkA-51" value="" style="endArrow=classic;html=1;rounded=0;exitX=0.5;exitY=1;exitDx=0;exitDy=0;entryX=0.5;entryY=0;entryDx=0;entryDy=0;" edge="1" parent="1">
          <mxGeometry width="50" height="50" relative="1" as="geometry">
            <mxPoint x="420.5" y="470" as="sourcePoint" />
            <mxPoint x="420.5" y="545" as="targetPoint" />
          </mxGeometry>
        </mxCell>
        <mxCell id="TwPkUrU1rlWBmwZkXrkA-52" value="" style="endArrow=none;html=1;rounded=0;entryX=1;entryY=0.5;entryDx=0;entryDy=0;" edge="1" parent="1" target="TwPkUrU1rlWBmwZkXrkA-32">
          <mxGeometry width="50" height="50" relative="1" as="geometry">
            <mxPoint x="826" y="185" as="sourcePoint" />
            <mxPoint x="846" y="460" as="targetPoint" />
          </mxGeometry>
        </mxCell>
        <mxCell id="TwPkUrU1rlWBmwZkXrkA-53" value="" style="endArrow=none;html=1;rounded=0;" edge="1" parent="1">
          <mxGeometry width="50" height="50" relative="1" as="geometry">
            <mxPoint x="826" y="520" as="sourcePoint" />
            <mxPoint x="826" y="185" as="targetPoint" />
          </mxGeometry>
        </mxCell>
        <mxCell id="TwPkUrU1rlWBmwZkXrkA-54" value="" style="endArrow=none;html=1;rounded=0;" edge="1" parent="1">
          <mxGeometry width="50" height="50" relative="1" as="geometry">
            <mxPoint x="346" y="520" as="sourcePoint" />
            <mxPoint x="496" y="520" as="targetPoint" />
          </mxGeometry>
        </mxCell>
        <mxCell id="TwPkUrU1rlWBmwZkXrkA-55" value="" style="endArrow=none;html=1;rounded=0;exitX=0.5;exitY=1;exitDx=0;exitDy=0;" edge="1" parent="1" source="TwPkUrU1rlWBmwZkXrkA-22">
          <mxGeometry width="50" height="50" relative="1" as="geometry">
            <mxPoint x="351" y="525" as="sourcePoint" />
            <mxPoint x="346" y="520" as="targetPoint" />
          </mxGeometry>
        </mxCell>
        <mxCell id="TwPkUrU1rlWBmwZkXrkA-56" value="" style="endArrow=none;html=1;rounded=0;exitX=0.5;exitY=1;exitDx=0;exitDy=0;" edge="1" parent="1" source="TwPkUrU1rlWBmwZkXrkA-24">
          <mxGeometry width="50" height="50" relative="1" as="geometry">
            <mxPoint x="351" y="275" as="sourcePoint" />
            <mxPoint x="496" y="520" as="targetPoint" />
          </mxGeometry>
        </mxCell>
        <mxCell id="TwPkUrU1rlWBmwZkXrkA-57" value="" style="endArrow=none;html=1;rounded=0;fontFamily=Helvetica;exitX=0;exitY=0.5;exitDx=0;exitDy=0;" edge="1" parent="1" source="TwPkUrU1rlWBmwZkXrkA-7">
          <mxGeometry width="50" height="50" relative="1" as="geometry">
            <mxPoint x="535" y="375" as="sourcePoint" />
            <mxPoint x="216" y="520" as="targetPoint" />
            <Array as="points">
              <mxPoint y="185" />
              <mxPoint y="520" />
            </Array>
          </mxGeometry>
        </mxCell>
        <mxCell id="TwPkUrU1rlWBmwZkXrkA-59" value="view profile" style="text;html=1;strokeColor=none;fillColor=none;align=center;verticalAlign=middle;whiteSpace=wrap;rounded=0;" vertex="1" parent="1">
          <mxGeometry x="24" y="170" width="68" height="30" as="geometry" />
        </mxCell>
        <mxCell id="TwPkUrU1rlWBmwZkXrkA-60" value="check booking" style="text;html=1;strokeColor=none;fillColor=none;align=center;verticalAlign=middle;whiteSpace=wrap;rounded=0;" vertex="1" parent="1">
          <mxGeometry x="177" y="240" width="80" height="30" as="geometry" />
        </mxCell>
        <mxCell id="TwPkUrU1rlWBmwZkXrkA-61" value="create booking" style="text;html=1;strokeColor=none;fillColor=none;align=center;verticalAlign=middle;whiteSpace=wrap;rounded=0;" vertex="1" parent="1">
          <mxGeometry x="16" y="240" width="84" height="30" as="geometry" />
        </mxCell>
        <mxCell id="TwPkUrU1rlWBmwZkXrkA-62" value="view profile" style="text;html=1;strokeColor=none;fillColor=none;align=center;verticalAlign=middle;whiteSpace=wrap;rounded=0;" vertex="1" parent="1">
          <mxGeometry x="734" y="170" width="64" height="30" as="geometry" />
        </mxCell>
        <mxCell id="TwPkUrU1rlWBmwZkXrkA-63" value="get bookings" style="text;html=1;strokeColor=none;fillColor=none;align=center;verticalAlign=middle;whiteSpace=wrap;rounded=0;" vertex="1" parent="1">
          <mxGeometry x="590" y="170" width="72" height="30" as="geometry" />
        </mxCell>
        <mxCell id="TwPkUrU1rlWBmwZkXrkA-65" value="get bookings" style="text;html=1;strokeColor=none;fillColor=none;align=center;verticalAlign=middle;whiteSpace=wrap;rounded=0;" vertex="1" parent="1">
          <mxGeometry x="177" y="170" width="78" height="30" as="geometry" />
        </mxCell>
        <mxCell id="TwPkUrU1rlWBmwZkXrkA-66" value="complete booking" style="text;html=1;strokeColor=none;fillColor=none;align=center;verticalAlign=middle;whiteSpace=wrap;rounded=0;" vertex="1" parent="1">
          <mxGeometry x="592" y="240" width="60" height="30" as="geometry" />
        </mxCell>
        <mxCell id="TwPkUrU1rlWBmwZkXrkA-67" value="&lt;font style=&quot;font-size: 11px;&quot;&gt;check complaint&lt;/font&gt;" style="text;html=1;strokeColor=none;fillColor=none;align=center;verticalAlign=middle;whiteSpace=wrap;rounded=0;" vertex="1" parent="1">
          <mxGeometry x="456" y="240" width="82" height="30" as="geometry" />
        </mxCell>
        <mxCell id="TwPkUrU1rlWBmwZkXrkA-68" value="view peofile" style="text;html=1;strokeColor=none;fillColor=none;align=center;verticalAlign=middle;whiteSpace=wrap;rounded=0;" vertex="1" parent="1">
          <mxGeometry x="310" y="240" width="72" height="30" as="geometry" />
        </mxCell>
        <mxCell id="TwPkUrU1rlWBmwZkXrkA-69" value="get complaints" style="text;html=1;strokeColor=none;fillColor=none;align=center;verticalAlign=middle;whiteSpace=wrap;rounded=0;" vertex="1" parent="1">
          <mxGeometry x="380" y="170" width="82" height="30" as="geometry" />
        </mxCell>
        <mxCell id="TwPkUrU1rlWBmwZkXrkA-70" value="get cleaner" style="text;html=1;strokeColor=none;fillColor=none;align=center;verticalAlign=middle;whiteSpace=wrap;rounded=0;" vertex="1" parent="1">
          <mxGeometry x="386.5" y="375" width="69" height="30" as="geometry" />
        </mxCell>
        <mxCell id="TwPkUrU1rlWBmwZkXrkA-71" value="get cleaners" style="text;html=1;strokeColor=none;fillColor=none;align=center;verticalAlign=middle;whiteSpace=wrap;rounded=0;" vertex="1" parent="1">
          <mxGeometry x="386.5" y="310" width="69" height="30" as="geometry" />
        </mxCell>
        <mxCell id="TwPkUrU1rlWBmwZkXrkA-72" value="leave complain" style="text;html=1;strokeColor=none;fillColor=none;align=center;verticalAlign=middle;whiteSpace=wrap;rounded=0;fontSize=11;" vertex="1" parent="1">
          <mxGeometry x="28" y="345" width="60" height="30" as="geometry" />
        </mxCell>
        <mxCell id="TwPkUrU1rlWBmwZkXrkA-73" value="&lt;font style=&quot;font-size: 11px;&quot;&gt;accept booking&lt;/font&gt;" style="text;html=1;strokeColor=none;fillColor=none;align=center;verticalAlign=middle;whiteSpace=wrap;rounded=0;" vertex="1" parent="1">
          <mxGeometry x="736" y="240" width="60" height="30" as="geometry" />
        </mxCell>
        <mxCell id="TwPkUrU1rlWBmwZkXrkA-74" value="&lt;font style=&quot;font-size: 11px;&quot;&gt;mark successful&lt;/font&gt;" style="text;html=1;strokeColor=none;fillColor=none;align=center;verticalAlign=middle;whiteSpace=wrap;rounded=0;" vertex="1" parent="1">
          <mxGeometry x="736" y="345" width="60" height="30" as="geometry" />
        </mxCell>
        <mxCell id="TwPkUrU1rlWBmwZkXrkA-75" value="&lt;font style=&quot;font-size: 11px;&quot;&gt;was success?&lt;/font&gt;" style="text;html=1;strokeColor=none;fillColor=none;align=center;verticalAlign=middle;whiteSpace=wrap;rounded=0;" vertex="1" parent="1">
          <mxGeometry x="596" y="340" width="60" height="30" as="geometry" />
        </mxCell>
        <mxCell id="TwPkUrU1rlWBmwZkXrkA-76" value="have complain?" style="text;html=1;strokeColor=none;fillColor=none;align=center;verticalAlign=middle;whiteSpace=wrap;rounded=0;fontSize=11;" vertex="1" parent="1">
          <mxGeometry x="192.44" y="348" width="49.12" height="16" as="geometry" />
        </mxCell>
        <mxCell id="TwPkUrU1rlWBmwZkXrkA-77" value="mark failure" style="text;html=1;strokeColor=none;fillColor=none;align=center;verticalAlign=middle;whiteSpace=wrap;rounded=0;" vertex="1" parent="1">
          <mxGeometry x="592" y="440" width="68" height="30" as="geometry" />
        </mxCell>
        <mxCell id="TwPkUrU1rlWBmwZkXrkA-78" value="&lt;font style=&quot;font-size: 11px;&quot;&gt;mark attendance&lt;/font&gt;" style="text;html=1;strokeColor=none;fillColor=none;align=center;verticalAlign=middle;whiteSpace=wrap;rounded=0;" vertex="1" parent="1">
          <mxGeometry x="390" y="440" width="60" height="30" as="geometry" />
        </mxCell>
        <mxCell id="TwPkUrU1rlWBmwZkXrkA-79" value="leave review" style="text;html=1;strokeColor=none;fillColor=none;align=center;verticalAlign=middle;whiteSpace=wrap;rounded=0;" vertex="1" parent="1">
          <mxGeometry x="180" y="440" width="70" height="30" as="geometry" />
        </mxCell>
        <mxCell id="TwPkUrU1rlWBmwZkXrkA-80" value="" style="endArrow=classic;html=1;rounded=0;exitX=0.5;exitY=1;exitDx=0;exitDy=0;entryX=0.5;entryY=0;entryDx=0;entryDy=0;" edge="1" parent="1" source="TwPkUrU1rlWBmwZkXrkA-77" target="TwPkUrU1rlWBmwZkXrkA-46">
          <mxGeometry width="50" height="50" relative="1" as="geometry">
            <mxPoint x="630" y="394" as="sourcePoint" />
            <mxPoint x="630" y="444" as="targetPoint" />
          </mxGeometry>
        </mxCell>
        <mxCell id="TwPkUrU1rlWBmwZkXrkA-81" value="" style="endArrow=none;html=1;rounded=0;" edge="1" parent="1">
          <mxGeometry width="50" height="50" relative="1" as="geometry">
            <mxPoint x="824" y="520" as="sourcePoint" />
            <mxPoint x="627" y="520" as="targetPoint" />
          </mxGeometry>
        </mxCell>
        <mxCell id="TwPkUrU1rlWBmwZkXrkA-83" value="no" style="text;html=1;strokeColor=none;fillColor=none;align=center;verticalAlign=middle;whiteSpace=wrap;rounded=0;" vertex="1" parent="1">
          <mxGeometry x="576" y="396" width="60" height="30" as="geometry" />
        </mxCell>
        <mxCell id="TwPkUrU1rlWBmwZkXrkA-84" value="yes" style="text;html=1;strokeColor=none;fillColor=none;align=center;verticalAlign=middle;whiteSpace=wrap;rounded=0;" vertex="1" parent="1">
          <mxGeometry x="652" y="334" width="60" height="30" as="geometry" />
        </mxCell>
        <mxCell id="TwPkUrU1rlWBmwZkXrkA-85" value="no" style="text;html=1;strokeColor=none;fillColor=none;align=center;verticalAlign=middle;whiteSpace=wrap;rounded=0;" vertex="1" parent="1">
          <mxGeometry x="208" y="396" width="60" height="30" as="geometry" />
        </mxCell>
        <mxCell id="TwPkUrU1rlWBmwZkXrkA-86" value="yes" style="text;html=1;strokeColor=none;fillColor=none;align=center;verticalAlign=middle;whiteSpace=wrap;rounded=0;" vertex="1" parent="1">
          <mxGeometry x="116" y="330" width="60" height="30" as="geometry" />
        </mxCell>
        <mxCell id="TwPkUrU1rlWBmwZkXrkA-89" value="" style="endArrow=classic;html=1;rounded=0;exitX=0;exitY=0.5;exitDx=0;exitDy=0;entryX=0.5;entryY=0;entryDx=0;entryDy=0;" edge="1" parent="1" source="TwPkUrU1rlWBmwZkXrkA-1" target="TwPkUrU1rlWBmwZkXrkA-65">
          <mxGeometry width="50" height="50" relative="1" as="geometry">
            <mxPoint x="388" y="346" as="sourcePoint" />
            <mxPoint x="438" y="296" as="targetPoint" />
            <Array as="points">
              <mxPoint x="216" y="40" />
            </Array>
          </mxGeometry>
        </mxCell>
        <mxCell id="TwPkUrU1rlWBmwZkXrkA-90" value="" style="endArrow=classic;html=1;rounded=0;exitX=1;exitY=0.5;exitDx=0;exitDy=0;entryX=0.5;entryY=0;entryDx=0;entryDy=0;" edge="1" parent="1" source="TwPkUrU1rlWBmwZkXrkA-1" target="TwPkUrU1rlWBmwZkXrkA-63">
          <mxGeometry width="50" height="50" relative="1" as="geometry">
            <mxPoint x="415" y="44" as="sourcePoint" />
            <mxPoint x="220" y="174" as="targetPoint" />
            <Array as="points">
              <mxPoint x="626" y="40" />
            </Array>
          </mxGeometry>
        </mxCell>
        <mxCell id="TwPkUrU1rlWBmwZkXrkA-92" value="" style="endArrow=none;dashed=1;html=1;dashPattern=1 3;strokeWidth=2;rounded=0;" edge="1" parent="1">
          <mxGeometry width="50" height="50" relative="1" as="geometry">
            <mxPoint x="288" y="589" as="sourcePoint" />
            <mxPoint x="288" y="109" as="targetPoint" />
          </mxGeometry>
        </mxCell>
        <mxCell id="TwPkUrU1rlWBmwZkXrkA-93" value="" style="endArrow=none;dashed=1;html=1;dashPattern=1 3;strokeWidth=2;rounded=0;" edge="1" parent="1">
          <mxGeometry width="50" height="50" relative="1" as="geometry">
            <mxPoint x="552" y="589" as="sourcePoint" />
            <mxPoint x="552" y="109" as="targetPoint" />
          </mxGeometry>
        </mxCell>
        <mxCell id="TwPkUrU1rlWBmwZkXrkA-95" value="" style="endArrow=none;dashed=1;html=1;dashPattern=1 3;strokeWidth=2;rounded=0;" edge="1" parent="1">
          <mxGeometry width="50" height="50" relative="1" as="geometry">
            <mxPoint x="-8" y="116" as="sourcePoint" />
            <mxPoint x="840" y="120" as="targetPoint" />
          </mxGeometry>
        </mxCell>
        <mxCell id="TwPkUrU1rlWBmwZkXrkA-96" value="" style="endArrow=none;dashed=1;html=1;dashPattern=1 3;strokeWidth=2;rounded=0;" edge="1" parent="1">
          <mxGeometry width="50" height="50" relative="1" as="geometry">
            <mxPoint x="-8" y="144" as="sourcePoint" />
            <mxPoint x="840" y="144" as="targetPoint" />
          </mxGeometry>
        </mxCell>
        <mxCell id="TwPkUrU1rlWBmwZkXrkA-97" value="" style="endArrow=none;dashed=1;html=1;dashPattern=1 3;strokeWidth=2;rounded=0;" edge="1" parent="1">
          <mxGeometry width="50" height="50" relative="1" as="geometry">
            <mxPoint x="-8" y="592" as="sourcePoint" />
            <mxPoint x="840" y="592" as="targetPoint" />
          </mxGeometry>
        </mxCell>
        <mxCell id="TwPkUrU1rlWBmwZkXrkA-98" value="" style="endArrow=none;dashed=1;html=1;dashPattern=1 3;strokeWidth=2;rounded=0;" edge="1" parent="1">
          <mxGeometry width="50" height="50" relative="1" as="geometry">
            <mxPoint x="-17" y="592" as="sourcePoint" />
            <mxPoint x="-17" y="116" as="targetPoint" />
          </mxGeometry>
        </mxCell>
        <mxCell id="TwPkUrU1rlWBmwZkXrkA-99" value="" style="endArrow=none;dashed=1;html=1;dashPattern=1 3;strokeWidth=2;rounded=0;" edge="1" parent="1">
          <mxGeometry width="50" height="50" relative="1" as="geometry">
            <mxPoint x="844" y="593" as="sourcePoint" />
            <mxPoint x="844" y="117" as="targetPoint" />
          </mxGeometry>
        </mxCell>
        <mxCell id="TwPkUrU1rlWBmwZkXrkA-100" value="STUDENT" style="text;html=1;strokeColor=none;fillColor=none;align=center;verticalAlign=middle;whiteSpace=wrap;rounded=0;" vertex="1" parent="1">
          <mxGeometry x="100" y="116" width="60" height="30" as="geometry" />
        </mxCell>
        <mxCell id="TwPkUrU1rlWBmwZkXrkA-101" value="CLEANER" style="text;html=1;strokeColor=none;fillColor=none;align=center;verticalAlign=middle;whiteSpace=wrap;rounded=0;" vertex="1" parent="1">
          <mxGeometry x="668" y="116" width="60" height="30" as="geometry" />
        </mxCell>
        <mxCell id="TwPkUrU1rlWBmwZkXrkA-102" value="SUPERVISOR" style="text;html=1;strokeColor=none;fillColor=none;align=center;verticalAlign=middle;whiteSpace=wrap;rounded=0;" vertex="1" parent="1">
          <mxGeometry x="390" y="116" width="60" height="30" as="geometry" />
        </mxCell>
        <mxCell id="TwPkUrU1rlWBmwZkXrkA-104" value="" style="endArrow=classic;html=1;rounded=0;entryX=0.5;entryY=0;entryDx=0;entryDy=0;" edge="1" parent="1" target="TwPkUrU1rlWBmwZkXrkA-69">
          <mxGeometry width="50" height="50" relative="1" as="geometry">
            <mxPoint x="421" y="144" as="sourcePoint" />
            <mxPoint x="421" y="100" as="targetPoint" />
          </mxGeometry>
        </mxCell>
        <mxCell id="TwPkUrU1rlWBmwZkXrkA-105" value="" style="endArrow=none;html=1;rounded=0;entryX=0.5;entryY=1;entryDx=0;entryDy=0;exitX=0.5;exitY=0;exitDx=0;exitDy=0;" edge="1" parent="1" source="TwPkUrU1rlWBmwZkXrkA-102" target="TwPkUrU1rlWBmwZkXrkA-1">
          <mxGeometry width="50" height="50" relative="1" as="geometry">
            <mxPoint x="388" y="346" as="sourcePoint" />
            <mxPoint x="438" y="296" as="targetPoint" />
          </mxGeometry>
        </mxCell>
        <mxCell id="TwPkUrU1rlWBmwZkXrkA-106" value="" style="endArrow=classic;html=1;rounded=0;exitX=0.5;exitY=1;exitDx=0;exitDy=0;entryX=0;entryY=0.5;entryDx=0;entryDy=0;" edge="1" parent="1" source="TwPkUrU1rlWBmwZkXrkA-61" target="TwPkUrU1rlWBmwZkXrkA-4">
          <mxGeometry width="50" height="50" relative="1" as="geometry">
            <mxPoint x="388" y="346" as="sourcePoint" />
            <mxPoint x="572" y="296" as="targetPoint" />
            <Array as="points">
              <mxPoint x="58" y="288" />
              <mxPoint x="564" y="288" />
              <mxPoint x="564" y="184" />
            </Array>
          </mxGeometry>
        </mxCell>
        <mxCell id="TwPkUrU1rlWBmwZkXrkA-107" value="" style="endArrow=classic;html=1;rounded=0;exitX=0.5;exitY=0;exitDx=0;exitDy=0;entryX=0;entryY=0.25;entryDx=0;entryDy=0;" edge="1" parent="1" source="TwPkUrU1rlWBmwZkXrkA-72" target="TwPkUrU1rlWBmwZkXrkA-5">
          <mxGeometry width="50" height="50" relative="1" as="geometry">
            <mxPoint x="388" y="346" as="sourcePoint" />
            <mxPoint x="438" y="296" as="targetPoint" />
            <Array as="points">
              <mxPoint x="58" y="308" />
              <mxPoint x="272" y="308" />
              <mxPoint x="272" y="178" />
            </Array>
          </mxGeometry>
        </mxCell>
        <mxCell id="TwPkUrU1rlWBmwZkXrkA-108" value="" style="endArrow=classic;html=1;rounded=0;exitX=1;exitY=0.5;exitDx=0;exitDy=0;entryX=0;entryY=0.5;entryDx=0;entryDy=0;" edge="1" parent="1" source="TwPkUrU1rlWBmwZkXrkA-16" target="TwPkUrU1rlWBmwZkXrkA-28">
          <mxGeometry width="50" height="50" relative="1" as="geometry">
            <mxPoint x="388" y="346" as="sourcePoint" />
            <mxPoint x="438" y="296" as="targetPoint" />
            <Array as="points">
              <mxPoint x="276" y="455" />
              <mxPoint x="276" y="392" />
            </Array>
          </mxGeometry>
        </mxCell>
        <mxCell id="TwPkUrU1rlWBmwZkXrkA-109" value="" style="endArrow=classic;html=1;rounded=0;entryX=0;entryY=0.75;entryDx=0;entryDy=0;" edge="1" parent="1" target="TwPkUrU1rlWBmwZkXrkA-32">
          <mxGeometry width="50" height="50" relative="1" as="geometry">
            <mxPoint x="276" y="424" as="sourcePoint" />
            <mxPoint x="438" y="296" as="targetPoint" />
            <Array as="points">
              <mxPoint x="700" y="424" />
              <mxPoint x="700" y="192" />
            </Array>
          </mxGeometry>
        </mxCell>
        <mxCell id="TwPkUrU1rlWBmwZkXrkA-110" value="" style="endArrow=classic;html=1;rounded=0;entryX=1;entryY=1;entryDx=0;entryDy=0;" edge="1" parent="1" target="TwPkUrU1rlWBmwZkXrkA-60">
          <mxGeometry width="50" height="50" relative="1" as="geometry">
            <mxPoint x="624" y="520" as="sourcePoint" />
            <mxPoint x="438" y="296" as="targetPoint" />
            <Array as="points">
              <mxPoint x="528" y="520" />
              <mxPoint x="528" y="356" />
              <mxPoint x="320" y="356" />
              <mxPoint x="256" y="356" />
              <mxPoint x="257" y="328" />
            </Array>
          </mxGeometry>
        </mxCell>
        <mxCell id="TwPkUrU1rlWBmwZkXrkA-112" value="" style="endArrow=none;html=1;rounded=0;entryX=0.5;entryY=1;entryDx=0;entryDy=0;" edge="1" parent="1" target="TwPkUrU1rlWBmwZkXrkA-73">
          <mxGeometry width="50" height="50" relative="1" as="geometry">
            <mxPoint x="528" y="356" as="sourcePoint" />
            <mxPoint x="438" y="296" as="targetPoint" />
            <Array as="points">
              <mxPoint x="528" y="308" />
              <mxPoint x="766" y="308" />
            </Array>
          </mxGeometry>
        </mxCell>
      </root>
    </mxGraphModel>
  </diagram>
</mxfile>
